sean_normal.sfdir

StartChar: exclam
Encoding: 33 33 1
Width: 412
Flags: MW
HStem: 0 135<198 268 198 268> 702 20G<197 268 268 268>
VStem: 198 70<0 135 0 135>
LayerCount: 2
Fore
SplineSet
201 229 m 1
 197 722 l 1
 268 722 l 1
 266 229 l 1
 201 229 l 1
198 135 m 1
 268 135 l 1
 268 0 l 1
 198 0 l 1
 198 135 l 1
EndSplineSet
EndChar

StartChar: quotedbl
Encoding: 34 34 2
Width: 446
Flags: MW
HStem: 658 188<83 188 121 148 121 265 303 330>
VStem: 83 287<658 846>
LayerCount: 2
Fore
SplineSet
265 658 m 1
 303 846 l 1
 370 846 l 1
 330 658 l 1
 265 658 l 1
83 658 m 1
 121 846 l 1
 188 846 l 1
 148 658 l 1
 83 658 l 1
EndSplineSet
EndChar

StartChar: numbersign
Encoding: 35 35 3
Width: 660
Flags: MW
HStem: 232 55<51 65> 245 55<414 431> 453 55<209 226> 463 55<482 499>
LayerCount: 2
Fore
SplineSet
51 232 m 1x80
 65 287 l 1
 159 290 l 1
 209 453 l 1
 119 450 l 1
 132 505 l 1
 226 508 l 1xa0
 287 706 l 1
 343 706 l 1
 283 510 l 1
 443 516 l 1
 506 720 l 1
 562 720 l 1
 499 518 l 1
 582 521 l 1
 573 466 l 1
 482 463 l 1
 431 300 l 1
 514 303 l 1
 503 248 l 1
 414 245 l 1x50
 350 38 l 1
 294 38 l 1
 358 243 l 1
 199 237 l 1
 136 30 l 1
 79 30 l 1
 142 235 l 1
 51 232 l 1x80
266 455 m 1
 216 292 l 1
 375 298 l 1
 425 461 l 1
 266 455 l 1
EndSplineSet
EndChar

StartChar: quotesingle
Encoding: 39 39 4
Width: 263
Flags: MW
HStem: 658 188<87 191 127 152>
VStem: 87 104
LayerCount: 2
Fore
SplineSet
87 658 m 1
 127 846 l 1
 191 846 l 1
 152 658 l 1
 87 658 l 1
EndSplineSet
EndChar

StartChar: parenleft
Encoding: 40 40 5
Width: 454
Flags: MW
VStem: 69 68<223.5 434 223.5 441>
LayerCount: 2
Fore
SplineSet
365 875 m 1
 220 731 137 543 137 325 c 0
 137 122 217 -73 360 -219 c 1
 312 -269 l 1
 155 -109 69 105 69 327 c 0
 69 555 158 761 311 917 c 1
 365 875 l 1
EndSplineSet
EndChar

StartChar: parenright
Encoding: 41 41 6
Width: 456
Flags: MW
VStem: 305 69<216 428.5>
LayerCount: 2
Fore
SplineSet
305 322 m 0
 305 535 220 727 73 870 c 1
 121 919 l 1
 281 764 374 559 374 320 c 0
 374 94 282 -123 119 -281 c 1
 64 -239 l 1
 219 -93 305 110 305 322 c 0
EndSplineSet
EndChar

StartChar: plus
Encoding: 43 43 7
Width: 755
Flags: MW
HStem: 290 64<96 352 96 352>
VStem: 352 66<289 290 289 354>
LayerCount: 2
Fore
SplineSet
96 290 m 1
 96 354 l 1
 352 354 l 1
 353 588 l 1
 419 588 l 1
 418 354 l 1
 664 354 l 1
 664 289 l 1
 418 289 l 1
 417 18 l 1
 351 18 l 1
 352 290 l 1
 96 290 l 1
EndSplineSet
EndChar

StartChar: comma
Encoding: 44 44 8
Width: 333
Flags: MW
HStem: -109 201<58 233 58 233>
VStem: 58 175
LayerCount: 2
Fore
SplineSet
58 -109 m 1
 157 92 l 1
 233 92 l 1
 117 -109 l 1
 58 -109 l 1
EndSplineSet
EndChar

StartChar: hyphen
Encoding: 45 45 9
Width: 397
Flags: MW
HStem: 240 64<59 343 59 343>
VStem: 59 284<240 304 240 304>
LayerCount: 2
Fore
SplineSet
59 304 m 1
 343 304 l 1
 343 240 l 1
 59 240 l 1
 59 304 l 1
EndSplineSet
EndChar

StartChar: period
Encoding: 46 46 10
Width: 335
Flags: MW
HStem: 0 157<133 207 133 207>
VStem: 133 74<0 157 0 157>
LayerCount: 2
Fore
SplineSet
133 157 m 1
 207 157 l 1
 207 0 l 1
 133 0 l 1
 133 157 l 1
EndSplineSet
EndChar

StartChar: slash
Encoding: 47 47 11
Width: 572
Flags: W
LayerCount: 2
Fore
SplineSet
121 -68 m 1
 50 -68 l 1
 466 844 l 1
 536 844 l 1
 121 -68 l 1
EndSplineSet
EndChar

StartChar: zero
Encoding: 48 48 12
Width: 579
Flags: MW
HStem: -13 67<240.5 291 291 293> 463 69<245 344>
VStem: 59 70<206 314 206 334.5> 456 69<208 316.5>
LayerCount: 2
Fore
SplineSet
129 260 m 0
 129 152 191 54 290 54 c 0
 386 54 456 152 456 264 c 0
 456 369 394 463 294 463 c 0
 196 463 129 368 129 260 c 0
291 -13 m 2
 157 -13 59 112 59 263 c 0
 59 406 154 532 291 532 c 0
 428 532 525 405 525 261 c 0
 525 112 426 -13 293 -13 c 2
 291 -13 l 2
EndSplineSet
EndChar

StartChar: one
Encoding: 49 49 13
Width: 323
Flags: MW
HStem: 0 21G<182 253 182 182>
VStem: 182 71<0 0>
LayerCount: 2
Fore
SplineSet
181 484 m 1
 252 484 l 1
 253 0 l 1
 182 0 l 1
 181 400 l 1
 30 276 l 1
 -14 324 l 1
 181 484 l 1
EndSplineSet
EndChar

StartChar: two
Encoding: 50 50 14
Width: 453
Flags: MW
HStem: 18 64<14 80 203 449 14 80> 474 66<179 247>
VStem: 325 63<347.5 383.5>
LayerCount: 2
Fore
SplineSet
325 352 m 0
 325 415 285 474 209 474 c 0
 149 474 107 424 68 366 c 1
 19 404 l 1
 72 481 135 540 214 540 c 0
 327 540 388 454 388 360 c 0
 388 335 384 309 376 282 c 0
 347 184 286 116 203 82 c 1
 449 82 l 1
 449 18 l 1
 14 18 l 1
 14 82 l 1
 146 82 245 142 302 260 c 0
 317 292 325 323 325 352 c 0
EndSplineSet
EndChar

StartChar: three
Encoding: 51 51 15
Width: 545
Flags: MW
HStem: -248 63<178.5 245 178.5 266> 99 62<140 141 140 202.5 141 182> 457 63<174 246.5>
VStem: 370 69<283 364> 403 73<-80 -28>
LayerCount: 2
Fore
SplineSet
370 319 m 0xf0
 370 409 295 457 198 457 c 0
 142 457 93 435 50 392 c 1
 24 438 l 1
 78 493 139 520 209 520 c 0
 343 520 439 449 439 323 c 0xf0
 439 243 397 182 330 144 c 1
 400 123 476 60 476 -39 c 0
 476 -159 332 -248 200 -248 c 0
 150 -248 100 -237 54 -214 c 1
 79 -155 l 1
 117 -175 158 -185 199 -185 c 0
 291 -185 403 -125 403 -35 c 0xe8
 403 -21 400 -5 394 10 c 0
 359 94 275 99 182 99 c 2
 141 99 l 1
 140 99 l 1
 140 161 l 1
 265 161 370 212 370 319 c 0xf0
EndSplineSet
EndChar

StartChar: four
Encoding: 52 52 16
Width: 613
Flags: MW
HStem: 49 64<98 371 17 17 441 598> 507 20G<372 443 443 443>
VStem: 371 70<49 49 49 113>
LayerCount: 2
Fore
SplineSet
98 113 m 1
 371 113 l 1
 372 436 l 1
 98 113 l 1
17 113 m 1
 372 527 l 1
 443 527 l 1
 441 113 l 1
 598 113 l 1
 598 49 l 1
 441 49 l 1
 440 -222 l 1
 370 -222 l 1
 371 49 l 1
 17 49 l 1
 17 113 l 1
EndSplineSet
EndChar

StartChar: five
Encoding: 53 53 17
Width: 516
Flags: MW
HStem: -247 67<218 290.5 217 314> 172 64<228 284> 469 65<162 442 162 162>
VStem: 93 67<165 165> 421 68<-57 52.5>
LayerCount: 2
Fore
SplineSet
241 236 m 0
 378 236 489 152 489 -11 c 0
 489 -146 383 -247 245 -247 c 0
 191 -247 132 -232 72 -197 c 1
 103 -141 l 1
 150 -168 196 -180 238 -180 c 0
 343 -180 421 -106 421 -8 c 0
 421 113 335 172 233 172 c 0
 210 172 185 169 160 165 c 1
 93 165 l 1
 94 534 l 1
 442 534 l 1
 442 469 l 1
 162 469 l 1
 160 229 l 1
 188 234 215 236 241 236 c 0
EndSplineSet
EndChar

StartChar: six
Encoding: 54 54 18
Width: 593
Flags: MW
HStem: -9 73<267.5 353 267.5 372> 322 57<279 335.5> 666 62<509 536>
VStem: 454 76<153 226>
LayerCount: 2
Fore
SplineSet
509 728 m 1
 536 666 l 1
 434 633 341 579 263 506 c 0
 206 453 157 388 139 317 c 1
 187 357 248 379 310 379 c 0
 429 379 530 309 530 190 c 0
 530 81 432 -9 312 -9 c 0
 166 -9 64 110 64 254 c 0
 64 357 120 453 194 530 c 0
 281 622 389 690 509 728 c 1
454 188 m 0
 454 264 380 322 291 322 c 0
 230 322 172 294 133 246 c 1
 140 141 220 64 315 64 c 0
 391 64 454 118 454 188 c 0
EndSplineSet
EndChar

StartChar: seven
Encoding: 55 55 19
Width: 572
Flags: MW
HStem: 430 67<76 529>
LayerCount: 2
Fore
SplineSet
76 497 m 1
 529 497 l 1
 529 429 l 1
 165 -222 l 1
 90 -222 l 1
 452 429 l 1
 76 430 l 1
 76 497 l 1
EndSplineSet
EndChar

StartChar: eight
Encoding: 56 56 20
Width: 582
Flags: MW
HStem: -24 62<305 307 307 341 305 351> 610 64<262 324>
VStem: 93 69<123.5 192.5> 108 64<481.5 545.5 481.5 561.5> 421 68<476 539> 442 61<115.5 187.5>
LayerCount: 2
Fore
SplineSet
291 610 m 0xd8
 233 610 172 579 172 512 c 0
 172 451 236 406 305 371 c 1
 365 403 421 447 421 505 c 0
 421 573 357 610 291 610 c 0xd8
295 -24 m 0
 186 -24 93 47 93 150 c 0xe4
 93 235 161 293 239 337 c 1
 168 378 108 436 108 512 c 0
 108 611 200 674 297 674 c 0
 398 674 489 606 489 509 c 0xd8
 489 436 435 379 368 341 c 1
 440 302 503 244 503 158 c 0xc4
 503 54 407 -24 295 -24 c 0
307 38 m 2
 375 38 442 79 442 152 c 0
 442 223 371 270 299 306 c 1
 229 271 162 227 162 159 c 0
 162 88 229 38 305 38 c 2
 307 38 l 2
EndSplineSet
EndChar

StartChar: nine
Encoding: 57 57 21
Width: 599
Flags: MW
HStem: -223 65<88 114> 90 66<266 320> 426 73<250.5 336>
VStem: 77 76<256 331.5 256 347> 460 68
LayerCount: 2
Fore
SplineSet
293 499 m 0
 441 499 528 369 528 237 c 0
 528 124 468 23 388 -57 c 0
 312 -134 217 -191 114 -223 c 1
 88 -158 l 1
 187 -128 277 -73 350 2 c 0
 390 43 425 91 444 143 c 1
 401 109 348 90 292 90 c 0
 171 90 77 169 77 290 c 0
 77 404 174 499 293 499 c 0
153 296 m 0
 153 216 221 156 311 156 c 0
 370 156 426 186 460 234 c 1
 459 340 383 426 289 426 c 0
 212 426 153 367 153 296 c 0
EndSplineSet
EndChar

StartChar: colon
Encoding: 58 58 22
Width: 361
Flags: MW
HStem: 0 149<150 221 150 221> 341 148<150 221 150 221>
VStem: 150 71<0 149 0 149 341 489>
LayerCount: 2
Fore
SplineSet
150 149 m 1
 221 149 l 1
 221 0 l 1
 150 0 l 1
 150 149 l 1
150 489 m 1
 221 489 l 1
 221 341 l 1
 150 341 l 1
 150 489 l 1
EndSplineSet
EndChar

StartChar: semicolon
Encoding: 59 59 23
Width: 333
Flags: MW
HStem: 341 148<153 224 153 224>
VStem: 153 71<341 489 341 489>
LayerCount: 2
Fore
SplineSet
153 341 m 1
 153 489 l 1
 224 489 l 1
 224 341 l 1
 153 341 l 1
55 -95 m 1
 159 92 l 1
 232 92 l 1
 120 -95 l 1
 55 -95 l 1
EndSplineSet
EndChar

StartChar: less
Encoding: 60 60 24
Width: 818
Flags: MW
HStem: 1 21G<711 711>
LayerCount: 2
Fore
SplineSet
185 301 m 1
 711 72 l 1
 711 1 l 1
 106 265 l 1
 106 335 l 1
 701 605 l 1
 701 535 l 1
 185 301 l 1
EndSplineSet
EndChar

StartChar: equal
Encoding: 61 61 25
Width: 839
Flags: MW
HStem: 185 65<109 724 109 724> 407 65<109 724 109 724>
LayerCount: 2
Fore
SplineSet
109 250 m 1
 724 250 l 1
 724 185 l 1
 109 185 l 1
 109 250 l 1
109 472 m 1
 724 472 l 1
 724 407 l 1
 109 407 l 1
 109 472 l 1
EndSplineSet
EndChar

StartChar: greater
Encoding: 62 62 26
Width: 818
Flags: MW
HStem: 1 21G<123 123>
LayerCount: 2
Fore
SplineSet
123 1 m 1
 123 72 l 1
 641 301 l 1
 109 535 l 1
 109 605 l 1
 720 336 l 1
 720 266 l 1
 123 1 l 1
EndSplineSet
EndChar

StartChar: question
Encoding: 63 63 27
Width: 555
Flags: MW
HStem: -10 144<224 301 224 301> 674 64<264 314>
VStem: 224 77<-10 134> 422 66<477.5 570.5>
LayerCount: 2
Fore
SplineSet
229 371 m 1
 325 371 422 426 422 529 c 0
 422 612 352 674 276 674 c 0
 252 674 227 668 203 654 c 1
 179 714 l 1
 211 730 244 738 276 738 c 0
 389 738 488 644 488 527 c 0
 488 403 400 335 299 314 c 1
 298 226 l 1
 228 226 l 1
 229 328 l 1
 229 371 l 1
301 -10 m 1
 224 -10 l 1
 224 134 l 1
 301 134 l 1
 301 -10 l 1
EndSplineSet
EndChar

StartChar: at
Encoding: 64 64 28
Width: 850
Flags: MW
HStem: -153 57<444 446 444 494> 29 54<609.5 652.5 609.5 665.5> 44 48<381 430.5> 351 56<404 466.5> 515 54<351 518.5>
VStem: 60 58<124.5 296.5 124.5 310> 242 60<178.5 250.5 178.5 266.5> 536 56<259.5 297.5> 734 59<196.5 320.5>
LayerCount: 2
Fore
SplineSet
734 244 m 0xdf80
 734 397 599 515 438 515 c 0
 264 515 118 382 118 211 c 0
 118 38 268 -96 444 -96 c 2
 446 -96 l 1
 530 -95 610 -63 671 -6 c 1
 711 -50 l 1
 638 -116 543 -153 445 -153 c 0
 235 -153 60 4 60 208 c 0
 60 412 233 569 439 569 c 0
 635 569 793 430 793 249 c 0
 793 123 709 29 622 29 c 0xdf80
 578 29 538 54 521 86 c 1
 490 59 451 44 410 44 c 0xbf80
 312 44 242 118 242 214 c 0
 242 319 332 407 441 407 c 0
 521 407 592 361 592 282 c 0
 592 237 567 197 567 149 c 0
 567 113 592 83 627 83 c 0
 678 83 734 149 734 244 c 0xdf80
302 213 m 0
 302 144 349 92 413 92 c 0xbf80
 454 92 502 119 509 163 c 0
 515 200 536 236 536 271 c 0
 536 324 490 351 443 351 c 0
 365 351 302 288 302 213 c 0
EndSplineSet
EndChar

StartChar: A
Encoding: 65 65 29
Width: 759
Flags: MW
HStem: 0 21G<58 133 58 58> 228 61<261 523 261 543 234 523> 701 20G<383 453 453 453>
LayerCount: 2
Fore
SplineSet
523 289 m 1
 413 630 l 1
 261 289 l 1
 523 289 l 1
543 228 m 1
 234 228 l 1
 133 0 l 1
 58 0 l 1
 383 721 l 1
 453 721 l 1
 689 1 l 1
 616 1 l 1
 543 228 l 1
EndSplineSet
EndChar

StartChar: B
Encoding: 66 66 30
Width: 640
Flags: MW
HStem: 0 63<173 281 173 281> 372 58<261 279 279 325.5 173 338> 659 63<173 276 173 173>
VStem: 103 70<63 371 430 659> 449 70<513.5 589> 493 71<163 261 141.5 269>
LayerCount: 2
Fore
SplineSet
276 722 m 2xf4
 406 722 519 676 519 548 c 0xf8
 519 479 478 430 417 402 c 1
 504 372 564 310 564 212 c 0
 564 71 437 0 281 0 c 2
 103 0 l 1
 103 722 l 1
 276 722 l 2xf4
449 545 m 0
 449 633 366 659 276 659 c 2
 173 659 l 1
 173 430 l 1
 279 430 l 2
 372 430 449 468 449 545 c 0
281 63 m 2
 397 63 493 109 493 217 c 0xf4
 493 321 397 372 279 372 c 0
 243 372 208 371 173 371 c 1
 173 63 l 1
 281 63 l 2
EndSplineSet
EndChar

StartChar: C
Encoding: 67 67 31
Width: 683
Flags: MW
HStem: -7 68<331 455.5> 663 68<336.5 462>
VStem: 78 72<265 447 265 465.5>
LayerCount: 2
Fore
SplineSet
411 61 m 0
 501 61 568 90 627 137 c 1
 667 81 l 1
 592 25 508 -7 403 -7 c 0
 201 -7 78 134 78 349 c 0
 78 582 206 731 414 731 c 0
 515 731 591 705 665 658 c 1
 630 600 l 1
 569 642 501 663 423 663 c 0
 250 663 150 542 150 352 c 0
 150 178 251 61 411 61 c 0
EndSplineSet
EndChar

StartChar: D
Encoding: 68 68 32
Width: 699
Flags: MW
HStem: 0 70<146 292 292 318> 652 70<146 278 278 289 146 146>
VStem: 76 70<70 652 70 722> 569 73<255.5 438>
LayerCount: 2
Fore
SplineSet
278 722 m 2
 509 722 642 587 642 347 c 0
 642 131 534 0 318 0 c 2
 76 0 l 1
 76 722 l 1
 278 722 l 2
569 342 m 0
 569 534 470 652 289 652 c 2
 146 652 l 1
 146 70 l 1
 292 70 l 2
 471 70 569 169 569 342 c 0
EndSplineSet
EndChar

StartChar: E
Encoding: 69 69 33
Width: 614
Flags: MW
HStem: 0 69<178 562 178 562> 339 69<178 450 178 450> 653 69<178 529 178 178>
VStem: 108 70<69 339 408 653>
LayerCount: 2
Fore
SplineSet
108 0 m 1
 108 722 l 1
 529 722 l 1
 529 653 l 1
 178 653 l 1
 178 408 l 1
 450 408 l 1
 450 339 l 1
 178 339 l 1
 178 69 l 1
 562 69 l 1
 562 0 l 1
 108 0 l 1
EndSplineSet
EndChar

StartChar: F
Encoding: 70 70 34
Width: 578
Flags: MW
HStem: 0 21G<108 108 108 178> 339 69<178 464 178 464> 653 69<178 533 178 178>
VStem: 108 70<0 339 408 653>
LayerCount: 2
Fore
SplineSet
108 0 m 1
 108 722 l 1
 533 722 l 1
 533 653 l 1
 178 653 l 1
 178 408 l 1
 464 408 l 1
 464 339 l 1
 178 339 l 1
 178 0 l 1
 108 0 l 1
EndSplineSet
EndChar

StartChar: G
Encoding: 71 71 35
Width: 779
Flags: MW
HStem: -6 63<346 474> 274 66<483 647 483 713> 661 69<346 478.5>
VStem: 77 71<263 450.5 263 470.5> 647 66<105 274 274 274>
LayerCount: 2
Fore
SplineSet
436 57 m 0
 516 57 582 74 647 105 c 1
 647 274 l 1
 483 274 l 1
 483 340 l 1
 713 340 l 1
 713 75 l 1
 625 22 528 -6 420 -6 c 0
 202 -6 77 128 77 356 c 0
 77 585 210 730 426 730 c 0
 532 730 614 703 695 655 c 1
 662 595 l 1
 594 637 522 661 435 661 c 0
 257 661 148 544 148 357 c 0
 148 169 256 57 436 57 c 0
EndSplineSet
EndChar

StartChar: H
Encoding: 72 72 36
Width: 758
Flags: MW
HStem: 0 21G<89 159 89 89 602 672 602 602> 329 67<160 602 160 602 159 602> 702 20G<89 160 160 160 602 672 672 672>
VStem: 89 70<0 329 0 722> 602 70<0 329 329 329 396 722 0 722>
LayerCount: 2
Fore
SplineSet
602 722 m 1
 672 722 l 1
 672 0 l 1
 602 0 l 1
 602 329 l 1
 159 329 l 1
 159 0 l 1
 89 0 l 1
 89 722 l 1
 160 722 l 1
 160 396 l 1
 602 396 l 1
 602 722 l 1
EndSplineSet
EndChar

StartChar: I
Encoding: 73 73 37
Width: 251
Flags: MW
HStem: 0 21G<92 92 92 162> 702 20G<93 163 163 163>
VStem: 92 70<0 0>
LayerCount: 2
Fore
SplineSet
92 0 m 1
 93 722 l 1
 163 722 l 1
 162 0 l 1
 92 0 l 1
EndSplineSet
EndChar

StartChar: J
Encoding: 74 74 38
Width: 312
Flags: MW
HStem: -227 63<24.5 81 24.5 94.5> 702 20G<152 223 223 223>
VStem: 152 70<-57 722>
LayerCount: 2
Fore
SplineSet
222 0 m 2
 222 -114 154 -227 35 -227 c 0
 -2 -227 -38 -213 -65 -187 c 1
 -32 -131 l 1
 -14 -153 11 -164 38 -164 c 0
 124 -164 152 -75 152 0 c 2
 152 722 l 1
 223 722 l 1
 222 0 l 2
EndSplineSet
EndChar

StartChar: K
Encoding: 75 75 39
Width: 665
Flags: MW
HStem: 0 21G<92 92 92 162 524 524 524 606> 702 20G<92 162 162 162 506 589 589 589>
VStem: 92 70<0 335 429 722>
LayerCount: 2
Fore
SplineSet
92 0 m 1
 92 722 l 1
 162 722 l 1
 162 429 l 1
 506 722 l 1
 589 722 l 1
 201 383 l 1
 606 0 l 1
 524 0 l 1
 162 335 l 1
 162 0 l 1
 92 0 l 1
EndSplineSet
EndChar

StartChar: L
Encoding: 76 76 40
Width: 568
Flags: MW
HStem: 0 69<162 538 162 538> 702 20G<92 162 162 162>
VStem: 92 70<69 722 69 722 69 722>
LayerCount: 2
Fore
SplineSet
92 0 m 1
 92 722 l 1
 162 722 l 1
 162 69 l 1
 538 69 l 1
 538 0 l 1
 92 0 l 1
EndSplineSet
EndChar

StartChar: M
Encoding: 77 77 41
Width: 876
Flags: MW
HStem: 0 21G<58 129 58 58 385 454 385 385 731 802 731 731> 702 20G<112 183 183 183 666 667 667 736 736 736>
LayerCount: 2
Fore
SplineSet
736 722 m 1
 802 0 l 1
 731 0 l 1
 680 577 l 1
 454 0 l 1
 385 0 l 1
 170 569 l 1
 129 0 l 1
 58 0 l 1
 112 722 l 1
 183 722 l 1
 415 76 l 1
 666 722 l 1
 667 722 l 1
 736 722 l 1
EndSplineSet
EndChar

StartChar: N
Encoding: 78 78 42
Width: 768
Flags: MW
HStem: 0 21G<92 92 92 162 619 619 619 689> 702 20G<92 162 162 162 619 689 689 689>
VStem: 92 70<0 620 0 722> 619 70<0 722 102 722 0 722>
LayerCount: 2
Fore
SplineSet
92 0 m 1
 92 722 l 1
 162 722 l 1
 619 102 l 1
 619 722 l 1
 689 722 l 1
 689 0 l 1
 619 0 l 1
 162 620 l 1
 162 0 l 1
 92 0 l 1
EndSplineSet
EndChar

StartChar: O
Encoding: 79 79 43
Width: 759
Flags: MW
HStem: -6 66<380 463 304 480> 662 66<300.5 459.5>
VStem: 63 71 628 72<277.5 362 362 367 257.5 447.5>
LayerCount: 2
Fore
SplineSet
381 662 m 0
 220 662 134 529 134 356 c 0
 134 189 228 60 380 60 c 0
 546 60 628 192 628 363 c 0
 628 532 538 662 381 662 c 0
380 728 m 0
 583 728 698 571 700 367 c 1
 700 362 l 2
 700 153 580 -6 380 -6 c 1
 181 -5 62 153 63 361 c 0
 64 570 184 728 380 728 c 0
EndSplineSet
EndChar

StartChar: P
Encoding: 80 80 44
Width: 558
Flags: MW
HStem: 0 21G<92 162 92 92> 259 70<261.5 323 251.5 353.5> 655 67<162 253 162 162>
VStem: 92 70<0 285 356 655> 448 71<439 541.5>
LayerCount: 2
Fore
SplineSet
285 259 m 0
 238 259 200 268 162 285 c 1
 162 0 l 1
 92 0 l 1
 92 722 l 1
 253 722 l 2
 399 722 519 641 519 480 c 0
 519 353 422 259 285 259 c 0
448 484 m 0
 448 599 359 655 253 655 c 2
 162 655 l 1
 162 356 l 1
 195 339 233 329 270 329 c 0
 376 329 448 394 448 484 c 0
EndSplineSet
EndChar

StartChar: Q
Encoding: 81 81 45
Width: 765
Flags: MW
HStem: -239 65<777 777> -6 67 661 67<300.5 384 283.5 463>
VStem: 58 70<278 449 278 469.5> 640 70<273.5 442>
LayerCount: 2
Fore
SplineSet
437 -2 m 1
 509 -94 631 -168 777 -174 c 1
 777 -239 l 1
 596 -231 446 -129 365 -6 c 1
 176 3 58 157 58 365 c 0
 58 574 183 728 384 728 c 0
 585 727 710 572 710 357 c 0
 710 169 608 24 437 -2 c 1
384 661 m 0
 217 661 128 533 128 365 c 0
 128 191 228 61 384 61 c 0
 552 61 640 192 640 355 c 0
 640 529 542 661 384 661 c 0
EndSplineSet
EndChar

StartChar: R
Encoding: 82 82 46
Width: 682
Flags: MW
HStem: 0 21G<111 181 111 111 601 682 601 601> 317 66<181 265 181 265> 654 68<181 291 181 181>
VStem: 111 70<0 317 383 654> 482 69<476 569>
LayerCount: 2
Fore
SplineSet
291 722 m 2
 434 722 551 661 551 522 c 0
 551 430 493 368 405 338 c 1
 682 0 l 1
 601 0 l 1
 335 322 l 1
 312 319 289 317 265 317 c 2
 181 317 l 1
 181 0 l 1
 111 0 l 1
 111 722 l 1
 291 722 l 2
181 383 m 1
 265 383 l 2
 381 383 482 421 482 521 c 0
 482 617 394 654 291 654 c 2
 181 654 l 1
 181 383 l 1
EndSplineSet
EndChar

StartChar: S
Encoding: 83 83 47
Width: 580
Flags: MW
HStem: -6 66<249 326.5 249 341.5> 665 66<243.5 313>
VStem: 78 72<523.5 595.5 523.5 616> 438 73<176 220>
LayerCount: 2
Fore
SplineSet
456 617 m 1
 403 645 346 665 280 665 c 0
 207 665 150 628 150 563 c 0
 150 484 243 441 320 403 c 0
 413 357 511 293 511 174 c 0
 511 63 408 -6 275 -6 c 0
 197 -6 126 10 58 39 c 1
 82 104 l 1
 144 75 214 60 284 60 c 0
 369 60 437 98 438 176 c 1
 438 264 348 313 265 353 c 0
 177 396 78 451 78 567 c 0
 78 665 165 731 282 731 c 0
 359 731 422 710 481 678 c 1
 456 617 l 1
EndSplineSet
EndChar

StartChar: T
Encoding: 84 84 48
Width: 622
Flags: MW
HStem: 0 21G<259 329 259 259> 659 69<3 620 3 259 329 329 329 620>
VStem: 259 70<0 659 0 659>
LayerCount: 2
Fore
SplineSet
3 659 m 1
 3 728 l 1
 620 728 l 1
 620 659 l 1
 329 659 l 1
 329 0 l 1
 259 0 l 1
 259 659 l 1
 3 659 l 1
EndSplineSet
EndChar

StartChar: U
Encoding: 85 85 49
Width: 705
Flags: MW
HStem: -6 69<302 436 302 447> 702 20G<82 153 153 153 571 641 641 641>
VStem: 83 70<239 300> 571 70<287 301 301 722>
LayerCount: 2
Fore
SplineSet
82 722 m 1
 153 722 l 1
 153 313 l 2
 153 165 231 63 373 63 c 0
 499 63 571 156 571 287 c 2
 571 722 l 1
 641 722 l 1
 641 301 l 2
 641 120 535 -6 359 -6 c 0
 183 -6 83 118 83 300 c 2
 82 722 l 1
EndSplineSet
EndChar

StartChar: V
Encoding: 86 86 50
Width: 744
Flags: MW
HStem: 0 21G<357 430 357 357> 702 20G<69 142 142 142 643 715 715 715>
LayerCount: 2
Fore
SplineSet
715 722 m 1
 430 0 l 1
 357 0 l 1
 69 722 l 1
 142 722 l 1
 395 96 l 1
 643 722 l 1
 715 722 l 1
EndSplineSet
EndChar

StartChar: W
Encoding: 87 87 51
Width: 966
Flags: MW
HStem: 0 21G<294 357 294 294 649 712 649 649> 702 20G<58 129 129 129 471 530 530 530 846 912 912 912>
VStem: 58 71<722 722>
LayerCount: 2
Fore
SplineSet
912 722 m 1
 712 0 l 1
 649 0 l 1
 503 607 l 1
 357 0 l 1
 294 0 l 1
 58 722 l 1
 129 722 l 1
 319 104 l 1
 471 722 l 1
 530 722 l 1
 679 109 l 1
 846 722 l 1
 912 722 l 1
EndSplineSet
EndChar

StartChar: X
Encoding: 88 88 52
Width: 692
Flags: MW
HStem: 0 21G<40 115 40 40 554 627 554 554> 702 20G<82 155 155 155 576 650 650 650>
LayerCount: 2
Fore
SplineSet
82 722 m 1
 155 722 l 1
 350 424 l 1
 576 722 l 1
 650 722 l 1
 387 367 l 1
 627 0 l 1
 554 0 l 1
 349 314 l 1
 115 0 l 1
 40 0 l 1
 313 368 l 1
 82 722 l 1
EndSplineSet
EndChar

StartChar: Y
Encoding: 89 89 53
Width: 623
Flags: MW
HStem: 0 21G<286 356 286 286> 702 20G<49 121 121 121 531 604 604 604>
VStem: 286 70<0 319 319 319>
LayerCount: 2
Fore
SplineSet
531 722 m 1
 604 722 l 1
 356 335 l 1
 356 0 l 1
 286 0 l 1
 286 319 l 1
 49 722 l 1
 121 722 l 1
 317 396 l 1
 531 722 l 1
EndSplineSet
EndChar

StartChar: Z
Encoding: 90 90 54
Width: 669
Flags: MW
HStem: 7 67<117 631 40 40> 641 67<106 106 106 530>
LayerCount: 2
Fore
SplineSet
106 641 m 1
 106 708 l 1
 606 709 l 1
 606 641 l 1
 117 74 l 1
 631 74 l 1
 631 7 l 1
 40 7 l 1
 40 74 l 1
 530 641 l 1
 106 641 l 1
EndSplineSet
EndChar

StartChar: underscore
Encoding: 95 95 55
Width: 713
Flags: MW
HStem: -242 70<25 692 25 692>
LayerCount: 2
Fore
SplineSet
25 -172 m 1
 692 -172 l 1
 692 -242 l 1
 25 -242 l 1
 25 -172 l 1
EndSplineSet
EndChar

StartChar: grave
Encoding: 96 96 56
Width: 340
Flags: MW
HStem: 656 190<73 223 73 293>
VStem: 73 220<656 846>
LayerCount: 2
Fore
SplineSet
223 656 m 1
 73 846 l 1
 147 846 l 1
 293 656 l 1
 223 656 l 1
EndSplineSet
EndChar

StartChar: a
Encoding: 97 97 57
Width: 615
Flags: MW
HStem: -9 67<210.5 270.5> 0 21G<423 493 423 423> 276 52<279.5 350> 484 62<228.5 303>
VStem: 61 70<120.5 200 120.5 213.5> 423 70<0 90 90 90 169 272 272 272 325 335 335 349 0 380.5>
LayerCount: 2
Fore
SplineSet
423 335 m 2xbc
 423 426 355 484 251 484 c 0
 206 484 161 470 124 442 c 1
 86 492 l 1
 135 529 195 546 256 546 c 0
 396 546 493 473 493 349 c 2
 493 0 l 1
 423 0 l 1x7c
 423 90 l 1
 372 30 308 -9 233 -9 c 0
 129 -9 61 53 61 145 c 0
 61 282 195 328 354 328 c 0
 377 328 400 327 423 325 c 1
 423 335 l 2xbc
131 150 m 0
 131 91 179 58 242 58 c 0xbc
 321 58 380 103 423 169 c 1
 423 272 l 1
 393 274 364 276 336 276 c 0
 223 276 131 250 131 150 c 0
EndSplineSet
EndChar

StartChar: b
Encoding: 98 98 58
Width: 598
Flags: MW
HStem: -4 56<269.5 349.5 257 376> 487 53<294 351> 763 20G<77 147 147 147>
VStem: 77 70<0 57 135 402 470 783> 473 72<205 323.5>
LayerCount: 2
Fore
SplineSet
303 -4 m 0
 236 -4 185 18 147 57 c 1
 147 0 l 1
 77 0 l 1
 77 783 l 1
 147 783 l 1
 147 470 l 1
 192 514 253 540 317 540 c 0
 465 540 545 416 545 266 c 0
 545 112 449 -4 303 -4 c 0
473 261 m 0
 473 386 408 487 294 487 c 1
 234 486 178 453 147 402 c 1
 147 135 l 1
 175 83 227 52 287 52 c 0
 412 52 473 149 473 261 c 0
EndSplineSet
EndChar

StartChar: c
Encoding: 99 99 59
Width: 476
Flags: MW
HStem: -9 67<252 335.5 252 336> 476 63<251.5 334.5>
VStem: 57 72<207 320.5 207 344.5>
LayerCount: 2
Fore
SplineSet
129 263 m 0
 129 151 192 58 312 58 c 0
 359 58 402 77 435 114 c 1
 475 67 l 1
 428 17 369 -9 303 -9 c 0
 143 -9 57 112 57 267 c 0
 57 422 154 539 312 539 c 0
 367 539 416 521 460 485 c 1
 426 432 l 1
 393 461 355 476 314 476 c 0
 189 476 129 378 129 263 c 0
EndSplineSet
EndChar

StartChar: d
Encoding: 100 100 60
Width: 631
Flags: MW
HStem: -6 55<264.5 338.5> 477 62<260.5 337.5 231.5 351> 763 20G<475 546 546 546>
VStem: 66 70<203.5 324.5 203.5 345.5> 477 70<147 290 290 307>
LayerCount: 2
Fore
SplineSet
322 477 m 0
 199 477 136 384 136 265 c 0
 136 142 209 49 320 49 c 0
 397 49 452 90 477 147 c 1
 477 290 l 1
 477 410 l 1
 437 453 380 477 322 477 c 0
299 539 m 0
 376 539 432 510 477 468 c 1
 477 573 476 678 475 783 c 1
 546 783 l 1
 547 625 547 466 547 307 c 2
 547 109 l 2
 547 73 546 36 546 0 c 1
 476 0 l 1
 476 69 l 1
 435 22 374 -6 303 -6 c 0
 153 -6 66 111 66 267 c 0
 66 424 164 539 299 539 c 0
EndSplineSet
EndChar

StartChar: e
Encoding: 101 101 61
Width: 568
Flags: MW
HStem: -8 65<266.5 323 266.5 345.5> 252 57<130 435 129 501 130 130> 476 66<242 289 289 291>
VStem: 58 72<252 252 252 351>
LayerCount: 2
Fore
SplineSet
288 542 m 0
 429 542 504 442 504 300 c 0
 504 284 503 268 501 252 c 1
 130 252 l 1
 142 137 210 57 323 57 c 1
 372 58 420 75 458 107 c 1
 498 58 l 1
 445 15 379 -8 312 -8 c 0
 145 -8 58 111 58 274 c 0
 58 428 151 542 288 542 c 0
435 309 m 1
 430 405 378 475 291 476 c 1
 289 476 l 2
 195 476 137 405 129 309 c 1
 435 309 l 1
EndSplineSet
EndChar

StartChar: f
Encoding: 102 102 62
Width: 471
Flags: MW
HStem: 0 21G<184 254 184 184> 454 67<29 184 29 184 254 456> 724 21G<450 450> 738 68<345 387 317 392.5>
VStem: 184 70<0 454 0 454 521 593>
LayerCount: 2
Fore
SplineSet
254 521 m 1xd8
 456 521 l 1
 456 454 l 1
 254 454 l 1
 254 0 l 1
 184 0 l 1
 184 454 l 1
 29 454 l 1
 29 521 l 1
 184 521 l 1
 184 593 l 2
 184 724 263 806 371 806 c 0xd8
 403 806 438 799 474 783 c 1
 450 724 l 1xe8
 426 734 403 738 382 738 c 0
 308 738 254 682 254 593 c 2
 254 521 l 1xd8
EndSplineSet
EndChar

StartChar: g
Encoding: 103 103 63
Width: 589
Flags: MW
HStem: -303 65<219 319.5 219 326> -4 61<256 397.5 280 397.5> 174 60<250 281 270 281> 445 59<456 575 456 456> 480 59<240 301.5 222.5 315>
VStem: 40 59<-107 -98.5> 71 60<102.5 143> 71 71<325 390.5 319 404.5> 414 64<320 377 307.5 391.5> 474 64<-149 -70.5>
LayerCount: 2
Fore
SplineSet
474 -109 m 0xe440
 474 -32 397 -4 326 -4 c 2
 280 -4 l 2
 232 -4 189 -3 154 7 c 1
 121 -20 99 -61 99 -107 c 0
 100 -196 171 -238 267 -238 c 0
 372 -238 474 -189 474 -109 c 0xe440
249 -303 m 0
 130 -303 40 -248 40 -129 c 0xf440
 40 -68 67 -12 113 25 c 1
 88 43 71 75 71 121 c 0xf2
 71 165 93 204 129 226 c 1
 94 257 71 298 71 352 c 0
 71 457 167 539 278 539 c 0xe9
 325 539 365 527 399 504 c 1
 575 504 l 1
 575 445 l 1
 456 445 l 1
 470 421 478 394 478 360 c 0
 478 255 384 174 272 174 c 2
 270 174 l 2
 230 174 193 184 161 203 c 1
 142 188 131 165 131 138 c 0xf280
 131 67 177 54 241 54 c 0
 274 54 312 57 351 57 c 0
 444 57 538 6 538 -100 c 0
 538 -215 403 -303 249 -303 c 0
142 356 m 0xe980
 142 282 207 234 279 234 c 2
 281 234 l 1
 350 236 414 284 414 356 c 0
 414 427 352 480 278 480 c 0
 202 480 142 425 142 356 c 0xe980
EndSplineSet
EndChar

StartChar: h
Encoding: 104 104 64
Width: 584
Flags: MW
HStem: 0 21G<83 154 83 83 435 435 435 505> 478 68<287 338> 763 20G<83 153 153 153>
VStem: 83 70<336.5 404 478 727 727 783> 435 70<0 55>
LayerCount: 2
Fore
SplineSet
434 331 m 0
 434 411 381 478 295 478 c 0
 240 478 185 449 153 404 c 1
 153 269 153 134 154 0 c 1
 83 0 l 1
 83 783 l 1
 153 783 l 1
 153 727 l 1
 153 478 l 1
 196 520 257 546 317 546 c 0
 442 546 504 446 504 337 c 0
 504 225 505 112 505 0 c 1
 435 0 l 1
 435 110 434 221 434 331 c 0
EndSplineSet
EndChar

StartChar: i
Encoding: 105 105 65
Width: 258
Flags: MW
HStem: 0 21G<95 95 95 165> 513 20G<94 165 165 165> 690 121<93 166 93 166>
VStem: 93 73<690 811 690 811>
LayerCount: 2
Fore
SplineSet
93 690 m 1
 93 811 l 1
 166 811 l 1
 166 690 l 1
 93 690 l 1
95 0 m 1
 94 533 l 1
 165 533 l 1
 165 0 l 1
 95 0 l 1
EndSplineSet
EndChar

StartChar: j
Encoding: 106 106 66
Width: 361
Flags: MW
HStem: -304 68<53 85 51.5 105.5> 515 20G<167 237 237 237> 683 127<166 239 166 239>
VStem: 167 70<-124 535>
LayerCount: 2
Fore
SplineSet
166 683 m 1
 166 810 l 1
 239 810 l 1
 239 683 l 1
 166 683 l 1
34 -234 m 1
 41 -235 48 -236 55 -236 c 0
 115 -236 167 -187 167 -124 c 2
 167 535 l 1
 237 535 l 1
 237 -124 l 2
 237 -224 154 -304 57 -304 c 0
 49 -304 42 -303 34 -302 c 1
 34 -234 l 1
EndSplineSet
EndChar

StartChar: k
Encoding: 107 107 67
Width: 612
Flags: MW
HStem: 0 21G<114 114 114 184 483 483 483 572> 513 20G<458 548 548 548> 763 20G<114 184 184 184>
VStem: 114 70<0 259 317 783>
LayerCount: 2
Fore
SplineSet
114 0 m 1
 114 783 l 1
 184 783 l 1
 184 317 l 1
 458 533 l 1
 548 533 l 1
 243 289 l 1
 572 0 l 1
 483 0 l 1
 184 259 l 1
 184 0 l 1
 114 0 l 1
EndSplineSet
EndChar

StartChar: l
Encoding: 108 108 68
Width: 279
Flags: MW
HStem: 1 21G<105 105 105 176> 763 20G<105 175 175 175>
VStem: 105 71<1 783>
LayerCount: 2
Fore
SplineSet
105 1 m 1
 105 783 l 1
 175 783 l 1
 176 1 l 1
 105 1 l 1
EndSplineSet
EndChar

StartChar: m
Encoding: 109 109 69
Width: 938
Flags: MW
HStem: 1 20G 480 66<297.5 352> 513 20G<92 163 163 163>
VStem: 92 71<329.5 472 472 533> 437 71<298.5 363 297 394> 781 70<1 346 346 349 1 384>
LayerCount: 2
Fore
SplineSet
437 358 m 0xdc
 437 430 391 480 313 480 c 0xdc
 254 480 197 450 163 402 c 1
 163 257 162 149 161 0 c 1
 91 0 l 1
 92 159 92 271 92 431 c 2
 92 533 l 1
 163 533 l 1xbc
 163 472 l 1
 205 518 266 546 329 546 c 0
 412 546 467 505 491 449 c 1
 531 508 600 545 672 545 c 0
 796 545 851 458 851 349 c 2
 851 1 l 1
 781 1 l 1
 781 346 l 2
 781 422 734 477 653 477 c 0
 594 477 537 445 505 395 c 1
 507 382 508 370 508 356 c 0
 508 238 507 119 506 1 c 1
 436 1 l 1
 437 120 437 239 437 358 c 0xdc
EndSplineSet
EndChar

StartChar: n
Encoding: 110 110 70
Width: 596
Flags: MW
HStem: 0 21G<83 154 83 83 447 447 447 517> 476 68<298.5 353.5> 513 20G<85 156 156 156>
VStem: 85 71<465 533 465 533 465 533> 447 70<0 353 353 358 0 391>
LayerCount: 2
Fore
SplineSet
447 353 m 2xd8
 447 429 393 476 314 476 c 0xd8
 252 476 193 445 156 396 c 1
 155 264 155 132 154 0 c 1
 83 0 l 1
 85 144 85 287 85 431 c 2
 85 533 l 1
 156 533 l 1xb8
 156 465 l 1
 200 514 265 544 332 544 c 0
 450 544 517 464 517 358 c 2
 517 0 l 1
 447 0 l 1
 447 353 l 2xd8
EndSplineSet
EndChar

StartChar: o
Encoding: 111 111 71
Width: 610
Flags: MW
HStem: -7 68<249.5 361 249.5 377> 474 65<245 356>
VStem: 63 70<214 331.5 214 346> 472 70<209 326.5>
LayerCount: 2
Fore
SplineSet
133 276 m 0
 133 152 196 61 303 61 c 0
 419 61 472 151 472 267 c 0
 472 386 409 474 303 474 c 0
 187 474 133 387 133 276 c 0
304 -7 m 0
 143 -7 63 108 63 267 c 0
 63 425 154 539 302 539 c 0
 460 539 542 426 542 270 c 0
 542 109 450 -7 304 -7 c 0
EndSplineSet
EndChar

StartChar: p
Encoding: 112 112 72
Width: 627
Flags: MW
HStem: -300 21G<83 154 83 83> -6 59<275 354 262.5 382.5> 488 52<307 374> 513 20G<83 154 154 154>
VStem: 83 71<-300 -300> 495 69<214 335>
LayerCount: 2
Fore
SplineSet
305 -6 m 0xec
 245 -6 197 11 156 42 c 1
 156 -72 155 -186 154 -300 c 1
 83 -300 l 1
 85 -154 86 -9 86 137 c 0
 86 269 86 403 83 533 c 1
 154 533 l 1xdc
 154 507 155 481 155 455 c 1
 203 507 272 540 342 540 c 0
 486 540 564 414 564 273 c 0
 564 111 460 -6 305 -6 c 0xec
322 488 m 0xec
 248 488 184 438 155 375 c 1
 155 285 156 196 156 106 c 1
 192 71 237 53 288 53 c 0
 420 53 495 150 495 278 c 0
 495 392 426 488 322 488 c 0xec
EndSplineSet
EndChar

StartChar: q
Encoding: 113 113 73
Width: 635
Flags: MW
HStem: -300 21G<480 550 480 480> -9 53<294 364> 483 55<275 353.5 245 366>
VStem: 60 73<203 330 203 345.5> 480 70<-300 31 31 31 84 417 417 417 480 533 -300 533>
LayerCount: 2
Fore
SplineSet
319 538 m 0
 388 538 438 516 480 480 c 1
 480 533 l 1
 550 533 l 1
 550 -300 l 1
 480 -300 l 1
 480 31 l 1
 437 4 390 -9 338 -9 c 0
 174 -9 60 104 60 270 c 0
 60 421 171 538 319 538 c 0
133 272 m 0
 133 134 229 44 359 44 c 0
 404 44 444 58 480 84 c 1
 480 417 l 1
 444 459 394 483 338 483 c 0
 212 483 133 388 133 272 c 0
EndSplineSet
EndChar

StartChar: r
Encoding: 114 114 74
Width: 408
Flags: MW
HStem: 0 21G<83 154 83 83> 475 66<317 362> 513 20G<83 154 154 154>
VStem: 83 71<0 375 456 533>
LayerCount: 2
Fore
SplineSet
357 475 m 0xd0
 266 475 199 430 154 375 c 1
 154 0 l 1
 83 0 l 1
 83 533 l 1
 154 533 l 1xb0
 154 456 l 1
 204 504 272 541 362 541 c 0
 373 541 383 540 394 539 c 1
 386 473 l 1
 376 474 367 475 357 475 c 0xd0
EndSplineSet
EndChar

StartChar: s
Encoding: 115 115 75
Width: 487
Flags: MW
HStem: -6 64<194 260.5 194 272.5> 479 61<224 280.5>
VStem: 70 70<362 426 362 441> 363 73<107.5 170>
LayerCount: 2
Fore
SplineSet
256 479 m 0
 192 479 140 453 140 399 c 0
 140 325 213 311 277 292 c 1
 359 269 436 231 436 143 c 0
 436 45 331 -6 214 -6 c 0
 142 -6 81 13 21 52 c 1
 53 108 l 1
 107 74 162 58 226 58 c 0
 295 58 363 75 363 140 c 0
 363 200 296 220 232 238 c 0
 150 262 70 301 70 399 c 0
 70 483 146 540 248 540 c 0
 315 540 366 523 417 491 c 1
 389 435 l 1
 348 465 305 479 256 479 c 0
EndSplineSet
EndChar

StartChar: t
Encoding: 116 116 76
Width: 440
Flags: MW
HStem: -6 60<279 306.5> 449 66<226 423 226 423>
VStem: 156 70<151.5 187 187 448 448 448 515 628 628 628>
LayerCount: 2
Fore
SplineSet
27 448 m 1
 26 514 l 1
 156 514 l 1
 156 628 l 1
 226 671 l 1
 226 515 l 1
 423 515 l 1
 423 449 l 1
 226 449 l 1
 226 187 l 2
 226 116 248 54 310 54 c 0
 339 54 367 62 392 77 c 1
 414 22 l 1
 373 4 329 -6 284 -6 c 0
 203 -6 156 60 156 145 c 2
 156 448 l 1
 27 448 l 1
EndSplineSet
EndChar

StartChar: u
Encoding: 117 117 77
Width: 595
Flags: MW
HStem: -11 56<253 308> 0 21G<444 515 444 444> 513 20G<88 159 159 159 444 515 515 515>
VStem: 88 70<169 192 150.5 533> 444 71<0 64 64 64 140 533 0 533>
LayerCount: 2
Fore
SplineSet
158 192 m 2xb8
 158 109 207 45 299 45 c 0xb8
 363 45 419 84 444 140 c 1
 444 533 l 1
 515 533 l 1
 515 0 l 1
 444 0 l 1x78
 444 64 l 1
 402 17 341 -11 275 -11 c 0
 158 -11 89 65 88 169 c 1
 88 533 l 1
 159 533 l 1
 158 192 l 2xb8
EndSplineSet
EndChar

StartChar: v
Encoding: 118 118 78
Width: 568
Flags: MW
HStem: 0 21G<244 312 244 244> 513 20G<38 111 111 111 454 527 527 527>
LayerCount: 2
Fore
SplineSet
38 533 m 1
 111 533 l 1
 274 77 l 1
 454 533 l 1
 527 533 l 1
 312 0 l 1
 244 0 l 1
 38 533 l 1
EndSplineSet
EndChar

StartChar: w
Encoding: 119 119 79
Width: 932
Flags: MW
HStem: 0 21G<255 323 255 255 597 664 597 597> 513 20G<57 128 128 128 430 498 498 498 818 893 893 893>
LayerCount: 2
Fore
SplineSet
57 533 m 1
 128 533 l 1
 281 79 l 1
 430 533 l 1
 498 533 l 1
 629 77 l 1
 818 533 l 1
 893 533 l 1
 664 0 l 1
 597 0 l 1
 463 427 l 1
 323 0 l 1
 255 0 l 1
 57 533 l 1
EndSplineSet
EndChar

StartChar: x
Encoding: 120 120 80
Width: 573
Flags: MW
HStem: 0 21G<48 124 48 48 435 517 435 435> 513 20G<85 167 167 167 442 518 518 518>
LayerCount: 2
Fore
SplineSet
85 533 m 1
 167 533 l 1
 294 340 l 1
 442 533 l 1
 518 533 l 1
 334 279 l 1
 517 0 l 1
 435 0 l 1
 293 216 l 1
 124 0 l 1
 48 0 l 1
 253 277 l 1
 85 533 l 1
EndSplineSet
EndChar

StartChar: y
Encoding: 121 121 81
Width: 578
Flags: MW
HStem: -300 21G<64 139 64 64> 513 20G<45 120 120 120 464 534 534 534>
LayerCount: 2
Fore
SplineSet
45 533 m 1
 120 533 l 1
 281 153 l 1
 464 533 l 1
 534 533 l 1
 139 -300 l 1
 64 -300 l 1
 247 81 l 1
 45 533 l 1
EndSplineSet
EndChar

StartChar: z
Encoding: 122 122 82
Width: 492
Flags: MW
HStem: 0 66<102 474 21 21> 454 66<67 464 67 384 67 464>
LayerCount: 2
Fore
SplineSet
67 454 m 1
 67 520 l 1
 464 520 l 1
 464 454 l 1
 102 66 l 1
 474 66 l 1
 474 0 l 1
 21 0 l 1
 21 66 l 1
 384 454 l 1
 67 454 l 1
EndSplineSet
EndChar

StartChar: bar
Encoding: 124 124 83
Width: 79
Flags: MW
HStem: -21 20G<6 76 76 76> 1 21G<6 6 6 76> 512 20G<6 76 76 76> 535 21G<6 76 6 6>
VStem: 6 70<-377 -1 -377 -1 1 532 535 847>
LayerCount: 2
Fore
SplineSet
6 847 m 1
 76 847 l 1
 76 535 l 1
 6 535 l 1
 6 847 l 1
6 1 m 1
 6 532 l 1
 76 532 l 1
 76 1 l 1
 6 1 l 1
6 -377 m 1
 6 -1 l 1
 76 -1 l 1
 76 -377 l 1
 6 -377 l 1
EndSplineSet
EndChar
